<mxfile host="app.diagrams.net" agent="Mozilla/5.0 (X11; Linux x86_64; rv:138.0) Gecko/20100101 Firefox/138.0" version="27.0.6">
  <diagram name="Page-1" id="CofDZJmG8fSnKSbHHaX5">
    <mxGraphModel dx="2779" dy="2269" grid="1" gridSize="10" guides="1" tooltips="1" connect="1" arrows="1" fold="1" page="1" pageScale="1" pageWidth="850" pageHeight="1100" math="0" shadow="0">
      <root>
        <mxCell id="0" />
        <mxCell id="1" parent="0" />
        <mxCell id="you-_u3-UDSHgtFlxdn6-1" value="Product" style="whiteSpace=wrap;html=1;align=center;fontFamily=Times New Roman;fillColor=#d5e8d4;strokeColor=#82b366;" parent="1" vertex="1">
          <mxGeometry x="330" y="440" width="100" height="40" as="geometry" />
        </mxCell>
        <mxCell id="you-_u3-UDSHgtFlxdn6-2" value="Attribute" style="ellipse;whiteSpace=wrap;html=1;align=center;fontFamily=Times New Roman;" parent="1" vertex="1">
          <mxGeometry x="-460" y="220" width="80" height="70" as="geometry" />
        </mxCell>
        <mxCell id="jfWpjxqZ-q61aFP-1aeR-1" value="Admin" style="whiteSpace=wrap;html=1;align=center;fontFamily=Times New Roman;fillColor=#f5f5f5;fontColor=#333333;strokeColor=#666666;" vertex="1" parent="1">
          <mxGeometry x="-200" y="460" width="100" height="40" as="geometry" />
        </mxCell>
        <mxCell id="jfWpjxqZ-q61aFP-1aeR-3" value="id" style="ellipse;whiteSpace=wrap;html=1;align=center;fontFamily=Times New Roman;fillColor=#f5f5f5;fontColor=#333333;strokeColor=#666666;" vertex="1" parent="1">
          <mxGeometry x="-270" y="340" width="80" height="80" as="geometry" />
        </mxCell>
        <mxCell id="jfWpjxqZ-q61aFP-1aeR-4" value="name" style="ellipse;whiteSpace=wrap;html=1;align=center;fontFamily=Times New Roman;" vertex="1" parent="1">
          <mxGeometry x="-280" y="530" width="80" height="80" as="geometry" />
        </mxCell>
        <mxCell id="jfWpjxqZ-q61aFP-1aeR-5" value="email" style="ellipse;whiteSpace=wrap;html=1;align=center;fontFamily=Times New Roman;" vertex="1" parent="1">
          <mxGeometry x="-120" y="360" width="80" height="80" as="geometry" />
        </mxCell>
        <mxCell id="jfWpjxqZ-q61aFP-1aeR-6" value="phone" style="ellipse;whiteSpace=wrap;html=1;align=center;fontFamily=Times New Roman;" vertex="1" parent="1">
          <mxGeometry x="-350" y="430" width="80" height="80" as="geometry" />
        </mxCell>
        <mxCell id="jfWpjxqZ-q61aFP-1aeR-7" value="password" style="ellipse;whiteSpace=wrap;html=1;align=center;fontFamily=Times New Roman;" vertex="1" parent="1">
          <mxGeometry x="-140" y="550" width="80" height="80" as="geometry" />
        </mxCell>
        <mxCell id="jfWpjxqZ-q61aFP-1aeR-8" value="" style="endArrow=none;html=1;rounded=0;" edge="1" parent="1">
          <mxGeometry relative="1" as="geometry">
            <mxPoint x="560" y="-10" as="sourcePoint" />
            <mxPoint x="720" y="-10" as="targetPoint" />
          </mxGeometry>
        </mxCell>
        <mxCell id="jfWpjxqZ-q61aFP-1aeR-9" value="" style="endArrow=none;html=1;rounded=0;entryX=0;entryY=0.5;entryDx=0;entryDy=0;exitX=1;exitY=0.5;exitDx=0;exitDy=0;" edge="1" parent="1" source="jfWpjxqZ-q61aFP-1aeR-6" target="jfWpjxqZ-q61aFP-1aeR-1">
          <mxGeometry relative="1" as="geometry">
            <mxPoint x="-267" y="470" as="sourcePoint" />
            <mxPoint x="370" y="420" as="targetPoint" />
          </mxGeometry>
        </mxCell>
        <mxCell id="jfWpjxqZ-q61aFP-1aeR-10" value="" style="endArrow=none;html=1;rounded=0;exitX=1;exitY=0;exitDx=0;exitDy=0;entryX=0.25;entryY=1;entryDx=0;entryDy=0;" edge="1" parent="1" source="jfWpjxqZ-q61aFP-1aeR-4" target="jfWpjxqZ-q61aFP-1aeR-1">
          <mxGeometry relative="1" as="geometry">
            <mxPoint x="210" y="420" as="sourcePoint" />
            <mxPoint x="370" y="420" as="targetPoint" />
          </mxGeometry>
        </mxCell>
        <mxCell id="jfWpjxqZ-q61aFP-1aeR-11" value="" style="endArrow=none;html=1;rounded=0;exitX=0;exitY=0;exitDx=0;exitDy=0;entryX=0.75;entryY=1;entryDx=0;entryDy=0;" edge="1" parent="1" source="jfWpjxqZ-q61aFP-1aeR-7" target="jfWpjxqZ-q61aFP-1aeR-1">
          <mxGeometry relative="1" as="geometry">
            <mxPoint x="-202" y="552" as="sourcePoint" />
            <mxPoint x="-165" y="510" as="targetPoint" />
          </mxGeometry>
        </mxCell>
        <mxCell id="jfWpjxqZ-q61aFP-1aeR-12" value="" style="endArrow=none;html=1;rounded=0;exitX=0;exitY=1;exitDx=0;exitDy=0;entryX=0.75;entryY=0;entryDx=0;entryDy=0;" edge="1" parent="1" source="jfWpjxqZ-q61aFP-1aeR-5" target="jfWpjxqZ-q61aFP-1aeR-1">
          <mxGeometry relative="1" as="geometry">
            <mxPoint x="-68" y="552" as="sourcePoint" />
            <mxPoint x="-115" y="510" as="targetPoint" />
          </mxGeometry>
        </mxCell>
        <mxCell id="jfWpjxqZ-q61aFP-1aeR-13" value="" style="endArrow=none;html=1;rounded=0;exitX=0.5;exitY=1;exitDx=0;exitDy=0;entryX=0.25;entryY=0;entryDx=0;entryDy=0;" edge="1" parent="1" source="jfWpjxqZ-q61aFP-1aeR-3" target="jfWpjxqZ-q61aFP-1aeR-1">
          <mxGeometry relative="1" as="geometry">
            <mxPoint x="-98" y="438" as="sourcePoint" />
            <mxPoint x="-115" y="470" as="targetPoint" />
          </mxGeometry>
        </mxCell>
        <mxCell id="jfWpjxqZ-q61aFP-1aeR-14" value="Customer" style="whiteSpace=wrap;html=1;align=center;fontFamily=Times New Roman;fillColor=#dae8fc;strokeColor=#6c8ebf;" vertex="1" parent="1">
          <mxGeometry x="-160" y="810" width="100" height="40" as="geometry" />
        </mxCell>
        <mxCell id="jfWpjxqZ-q61aFP-1aeR-15" value="id" style="ellipse;whiteSpace=wrap;html=1;align=center;fontFamily=Times New Roman;fillColor=#dae8fc;strokeColor=#6c8ebf;" vertex="1" parent="1">
          <mxGeometry x="-300" y="700" width="80" height="80" as="geometry" />
        </mxCell>
        <mxCell id="jfWpjxqZ-q61aFP-1aeR-16" value="email" style="ellipse;whiteSpace=wrap;html=1;align=center;fontFamily=Times New Roman;" vertex="1" parent="1">
          <mxGeometry x="-150" y="690" width="80" height="80" as="geometry" />
        </mxCell>
        <mxCell id="jfWpjxqZ-q61aFP-1aeR-17" value="phone" style="ellipse;whiteSpace=wrap;html=1;align=center;fontFamily=Times New Roman;" vertex="1" parent="1">
          <mxGeometry x="-50" y="710" width="80" height="80" as="geometry" />
        </mxCell>
        <mxCell id="jfWpjxqZ-q61aFP-1aeR-19" value="name" style="ellipse;whiteSpace=wrap;html=1;align=center;fontFamily=Times New Roman;" vertex="1" parent="1">
          <mxGeometry x="-280" y="860" width="80" height="80" as="geometry" />
        </mxCell>
        <mxCell id="jfWpjxqZ-q61aFP-1aeR-20" value="date" style="ellipse;whiteSpace=wrap;html=1;align=center;fontFamily=Times New Roman;" vertex="1" parent="1">
          <mxGeometry x="-190" y="900" width="80" height="80" as="geometry" />
        </mxCell>
        <mxCell id="jfWpjxqZ-q61aFP-1aeR-21" value="password" style="ellipse;whiteSpace=wrap;html=1;align=center;fontFamily=Times New Roman;" vertex="1" parent="1">
          <mxGeometry y="900" width="80" height="80" as="geometry" />
        </mxCell>
        <mxCell id="jfWpjxqZ-q61aFP-1aeR-22" value="profile_image" style="ellipse;whiteSpace=wrap;html=1;align=center;fontFamily=Times New Roman;" vertex="1" parent="1">
          <mxGeometry x="-10" y="810" width="80" height="80" as="geometry" />
        </mxCell>
        <mxCell id="jfWpjxqZ-q61aFP-1aeR-23" value="gender" style="ellipse;whiteSpace=wrap;html=1;align=center;fontFamily=Times New Roman;" vertex="1" parent="1">
          <mxGeometry x="-340" y="780" width="80" height="80" as="geometry" />
        </mxCell>
        <mxCell id="jfWpjxqZ-q61aFP-1aeR-24" value="" style="endArrow=none;html=1;rounded=0;entryX=1;entryY=1;entryDx=0;entryDy=0;exitX=0;exitY=0.25;exitDx=0;exitDy=0;" edge="1" parent="1" source="jfWpjxqZ-q61aFP-1aeR-14" target="jfWpjxqZ-q61aFP-1aeR-15">
          <mxGeometry relative="1" as="geometry">
            <mxPoint x="-170" y="830" as="sourcePoint" />
            <mxPoint x="-125" y="490" as="targetPoint" />
          </mxGeometry>
        </mxCell>
        <mxCell id="jfWpjxqZ-q61aFP-1aeR-25" value="" style="endArrow=none;html=1;rounded=0;entryX=0.5;entryY=1;entryDx=0;entryDy=0;exitX=0.25;exitY=0;exitDx=0;exitDy=0;" edge="1" parent="1" source="jfWpjxqZ-q61aFP-1aeR-14" target="jfWpjxqZ-q61aFP-1aeR-16">
          <mxGeometry relative="1" as="geometry">
            <mxPoint x="-150" y="820" as="sourcePoint" />
            <mxPoint x="-222" y="778" as="targetPoint" />
          </mxGeometry>
        </mxCell>
        <mxCell id="jfWpjxqZ-q61aFP-1aeR-27" value="" style="endArrow=none;html=1;rounded=0;entryX=0;entryY=1;entryDx=0;entryDy=0;exitX=0.5;exitY=0;exitDx=0;exitDy=0;" edge="1" parent="1" source="jfWpjxqZ-q61aFP-1aeR-14" target="jfWpjxqZ-q61aFP-1aeR-17">
          <mxGeometry relative="1" as="geometry">
            <mxPoint x="-125" y="820" as="sourcePoint" />
            <mxPoint x="-100" y="780" as="targetPoint" />
          </mxGeometry>
        </mxCell>
        <mxCell id="jfWpjxqZ-q61aFP-1aeR-28" value="" style="endArrow=none;html=1;rounded=0;entryX=0;entryY=0.5;entryDx=0;entryDy=0;exitX=1;exitY=0.25;exitDx=0;exitDy=0;" edge="1" parent="1" source="jfWpjxqZ-q61aFP-1aeR-14" target="jfWpjxqZ-q61aFP-1aeR-22">
          <mxGeometry relative="1" as="geometry">
            <mxPoint x="-100" y="820" as="sourcePoint" />
            <mxPoint x="-28" y="788" as="targetPoint" />
          </mxGeometry>
        </mxCell>
        <mxCell id="jfWpjxqZ-q61aFP-1aeR-29" value="" style="endArrow=none;html=1;rounded=0;entryX=0.5;entryY=0;entryDx=0;entryDy=0;exitX=1;exitY=0.75;exitDx=0;exitDy=0;" edge="1" parent="1" source="jfWpjxqZ-q61aFP-1aeR-14" target="jfWpjxqZ-q61aFP-1aeR-21">
          <mxGeometry relative="1" as="geometry">
            <mxPoint x="-50" y="830" as="sourcePoint" />
            <mxPoint y="860" as="targetPoint" />
          </mxGeometry>
        </mxCell>
        <mxCell id="jfWpjxqZ-q61aFP-1aeR-30" value="" style="endArrow=none;html=1;rounded=0;entryX=1;entryY=0;entryDx=0;entryDy=0;exitX=0.5;exitY=1;exitDx=0;exitDy=0;" edge="1" parent="1" source="jfWpjxqZ-q61aFP-1aeR-14" target="jfWpjxqZ-q61aFP-1aeR-20">
          <mxGeometry relative="1" as="geometry">
            <mxPoint x="-50" y="850" as="sourcePoint" />
            <mxPoint x="-20" y="900" as="targetPoint" />
          </mxGeometry>
        </mxCell>
        <mxCell id="jfWpjxqZ-q61aFP-1aeR-31" value="" style="endArrow=none;html=1;rounded=0;entryX=1;entryY=0;entryDx=0;entryDy=0;exitX=0.25;exitY=1;exitDx=0;exitDy=0;" edge="1" parent="1" source="jfWpjxqZ-q61aFP-1aeR-14" target="jfWpjxqZ-q61aFP-1aeR-19">
          <mxGeometry relative="1" as="geometry">
            <mxPoint x="-62" y="860" as="sourcePoint" />
            <mxPoint x="-112" y="912" as="targetPoint" />
          </mxGeometry>
        </mxCell>
        <mxCell id="jfWpjxqZ-q61aFP-1aeR-32" value="" style="endArrow=none;html=1;rounded=0;entryX=1;entryY=0.5;entryDx=0;entryDy=0;exitX=0;exitY=0.5;exitDx=0;exitDy=0;" edge="1" parent="1" source="jfWpjxqZ-q61aFP-1aeR-14" target="jfWpjxqZ-q61aFP-1aeR-23">
          <mxGeometry relative="1" as="geometry">
            <mxPoint x="-125" y="860" as="sourcePoint" />
            <mxPoint x="-202" y="882" as="targetPoint" />
          </mxGeometry>
        </mxCell>
        <mxCell id="jfWpjxqZ-q61aFP-1aeR-33" value="id" style="ellipse;whiteSpace=wrap;html=1;align=center;fontFamily=Times New Roman;fillColor=#d5e8d4;strokeColor=#82b366;" vertex="1" parent="1">
          <mxGeometry x="190" y="390" width="70" height="70" as="geometry" />
        </mxCell>
        <mxCell id="jfWpjxqZ-q61aFP-1aeR-34" value="name" style="ellipse;whiteSpace=wrap;html=1;align=center;fontFamily=Times New Roman;" vertex="1" parent="1">
          <mxGeometry x="180" y="500" width="70" height="70" as="geometry" />
        </mxCell>
        <mxCell id="jfWpjxqZ-q61aFP-1aeR-36" value="Attribute" style="ellipse;whiteSpace=wrap;html=1;align=center;fontFamily=Times New Roman;" vertex="1" parent="1">
          <mxGeometry x="-370" y="80" width="90" height="90" as="geometry" />
        </mxCell>
        <mxCell id="jfWpjxqZ-q61aFP-1aeR-39" value="original_price" style="ellipse;whiteSpace=wrap;html=1;align=center;fontFamily=Times New Roman;" vertex="1" parent="1">
          <mxGeometry x="230" y="570" width="70" height="70" as="geometry" />
        </mxCell>
        <mxCell id="jfWpjxqZ-q61aFP-1aeR-44" value="discount" style="ellipse;whiteSpace=wrap;html=1;align=center;fontFamily=Times New Roman;" vertex="1" parent="1">
          <mxGeometry x="295" y="570" width="70" height="70" as="geometry" />
        </mxCell>
        <mxCell id="jfWpjxqZ-q61aFP-1aeR-45" value="quantity" style="ellipse;whiteSpace=wrap;html=1;align=center;fontFamily=Times New Roman;" vertex="1" parent="1">
          <mxGeometry x="500" y="540" width="70" height="70" as="geometry" />
        </mxCell>
        <mxCell id="jfWpjxqZ-q61aFP-1aeR-46" value="sensor_type" style="ellipse;whiteSpace=wrap;html=1;align=center;fontFamily=Times New Roman;" vertex="1" parent="1">
          <mxGeometry x="540" y="365" width="70" height="70" as="geometry" />
        </mxCell>
        <mxCell id="jfWpjxqZ-q61aFP-1aeR-47" value="resolution" style="ellipse;whiteSpace=wrap;html=1;align=center;fontFamily=Times New Roman;" vertex="1" parent="1">
          <mxGeometry x="470" y="330" width="70" height="70" as="geometry" />
        </mxCell>
        <mxCell id="jfWpjxqZ-q61aFP-1aeR-49" value="shutter_speed" style="ellipse;whiteSpace=wrap;html=1;align=center;fontFamily=Times New Roman;" vertex="1" parent="1">
          <mxGeometry x="180" y="300" width="70" height="70" as="geometry" />
        </mxCell>
        <mxCell id="jfWpjxqZ-q61aFP-1aeR-51" value="description" style="ellipse;whiteSpace=wrap;html=1;align=center;fontFamily=Times New Roman;" vertex="1" parent="1">
          <mxGeometry x="530" y="470" width="70" height="70" as="geometry" />
        </mxCell>
        <mxCell id="jfWpjxqZ-q61aFP-1aeR-52" value="promotional_price" style="ellipse;whiteSpace=wrap;html=1;align=center;fontFamily=Times New Roman;" vertex="1" parent="1">
          <mxGeometry x="445" y="610" width="110" height="90" as="geometry" />
        </mxCell>
        <mxCell id="jfWpjxqZ-q61aFP-1aeR-53" value="" style="endArrow=none;html=1;rounded=0;exitX=1;exitY=0.5;exitDx=0;exitDy=0;entryX=0;entryY=0;entryDx=0;entryDy=0;" edge="1" parent="1" source="jfWpjxqZ-q61aFP-1aeR-33" target="you-_u3-UDSHgtFlxdn6-1">
          <mxGeometry relative="1" as="geometry">
            <mxPoint x="-180" y="410" as="sourcePoint" />
            <mxPoint x="-125" y="450" as="targetPoint" />
          </mxGeometry>
        </mxCell>
        <mxCell id="jfWpjxqZ-q61aFP-1aeR-54" value="" style="endArrow=none;html=1;rounded=0;exitX=1;exitY=0;exitDx=0;exitDy=0;entryX=0;entryY=0.75;entryDx=0;entryDy=0;" edge="1" parent="1" source="jfWpjxqZ-q61aFP-1aeR-34" target="you-_u3-UDSHgtFlxdn6-1">
          <mxGeometry relative="1" as="geometry">
            <mxPoint x="270" y="435" as="sourcePoint" />
            <mxPoint x="340" y="450" as="targetPoint" />
          </mxGeometry>
        </mxCell>
        <mxCell id="jfWpjxqZ-q61aFP-1aeR-58" value="" style="endArrow=none;html=1;rounded=0;exitX=0.5;exitY=0;exitDx=0;exitDy=0;entryX=0;entryY=1;entryDx=0;entryDy=0;" edge="1" parent="1" source="jfWpjxqZ-q61aFP-1aeR-39" target="you-_u3-UDSHgtFlxdn6-1">
          <mxGeometry relative="1" as="geometry">
            <mxPoint x="365" y="550" as="sourcePoint" />
            <mxPoint x="340" y="490" as="targetPoint" />
          </mxGeometry>
        </mxCell>
        <mxCell id="jfWpjxqZ-q61aFP-1aeR-59" value="" style="endArrow=none;html=1;rounded=0;exitX=0.5;exitY=0;exitDx=0;exitDy=0;entryX=0.25;entryY=1;entryDx=0;entryDy=0;" edge="1" parent="1" source="jfWpjxqZ-q61aFP-1aeR-44" target="you-_u3-UDSHgtFlxdn6-1">
          <mxGeometry relative="1" as="geometry">
            <mxPoint x="460" y="560" as="sourcePoint" />
            <mxPoint x="365" y="490" as="targetPoint" />
          </mxGeometry>
        </mxCell>
        <mxCell id="jfWpjxqZ-q61aFP-1aeR-60" value="" style="endArrow=none;html=1;rounded=0;exitX=0.5;exitY=0;exitDx=0;exitDy=0;entryX=0.614;entryY=0.979;entryDx=0;entryDy=0;entryPerimeter=0;" edge="1" parent="1" source="jfWpjxqZ-q61aFP-1aeR-52" target="you-_u3-UDSHgtFlxdn6-1">
          <mxGeometry relative="1" as="geometry">
            <mxPoint x="535" y="555" as="sourcePoint" />
            <mxPoint x="390" y="490" as="targetPoint" />
          </mxGeometry>
        </mxCell>
        <mxCell id="jfWpjxqZ-q61aFP-1aeR-62" value="" style="endArrow=none;html=1;rounded=0;exitX=0;exitY=1;exitDx=0;exitDy=0;entryX=0.75;entryY=1;entryDx=0;entryDy=0;" edge="1" parent="1" source="jfWpjxqZ-q61aFP-1aeR-45" target="you-_u3-UDSHgtFlxdn6-1">
          <mxGeometry relative="1" as="geometry">
            <mxPoint x="560" y="535" as="sourcePoint" />
            <mxPoint x="415" y="490" as="targetPoint" />
          </mxGeometry>
        </mxCell>
        <mxCell id="jfWpjxqZ-q61aFP-1aeR-63" value="" style="endArrow=none;html=1;rounded=0;exitX=0;exitY=1;exitDx=0;exitDy=0;entryX=1;entryY=1;entryDx=0;entryDy=0;" edge="1" parent="1" source="jfWpjxqZ-q61aFP-1aeR-51" target="you-_u3-UDSHgtFlxdn6-1">
          <mxGeometry relative="1" as="geometry">
            <mxPoint x="580" y="480" as="sourcePoint" />
            <mxPoint x="440" y="480" as="targetPoint" />
          </mxGeometry>
        </mxCell>
        <mxCell id="jfWpjxqZ-q61aFP-1aeR-64" value="" style="endArrow=none;html=1;rounded=0;exitX=0.5;exitY=1;exitDx=0;exitDy=0;entryX=1;entryY=0.25;entryDx=0;entryDy=0;" edge="1" parent="1" source="jfWpjxqZ-q61aFP-1aeR-46" target="you-_u3-UDSHgtFlxdn6-1">
          <mxGeometry relative="1" as="geometry">
            <mxPoint x="570" y="400" as="sourcePoint" />
            <mxPoint x="440" y="470" as="targetPoint" />
          </mxGeometry>
        </mxCell>
        <mxCell id="jfWpjxqZ-q61aFP-1aeR-65" value="" style="endArrow=none;html=1;rounded=0;exitX=0.5;exitY=1;exitDx=0;exitDy=0;entryX=1;entryY=0;entryDx=0;entryDy=0;" edge="1" parent="1" source="jfWpjxqZ-q61aFP-1aeR-47" target="you-_u3-UDSHgtFlxdn6-1">
          <mxGeometry relative="1" as="geometry">
            <mxPoint x="545" y="370" as="sourcePoint" />
            <mxPoint x="440" y="460" as="targetPoint" />
          </mxGeometry>
        </mxCell>
        <mxCell id="jfWpjxqZ-q61aFP-1aeR-67" value="" style="endArrow=none;html=1;rounded=0;exitX=1;exitY=1;exitDx=0;exitDy=0;entryX=0.085;entryY=-0.021;entryDx=0;entryDy=0;entryPerimeter=0;" edge="1" parent="1" source="jfWpjxqZ-q61aFP-1aeR-49" target="you-_u3-UDSHgtFlxdn6-1">
          <mxGeometry relative="1" as="geometry">
            <mxPoint x="390" y="370" as="sourcePoint" />
            <mxPoint x="415" y="450" as="targetPoint" />
          </mxGeometry>
        </mxCell>
        <mxCell id="jfWpjxqZ-q61aFP-1aeR-70" value="Brand" style="whiteSpace=wrap;html=1;align=center;fontFamily=Times New Roman;fillColor=#ffe6cc;strokeColor=#d79b00;" vertex="1" parent="1">
          <mxGeometry x="10" y="150" width="100" height="40" as="geometry" />
        </mxCell>
        <mxCell id="jfWpjxqZ-q61aFP-1aeR-71" value="id" style="ellipse;whiteSpace=wrap;html=1;align=center;fontFamily=Times New Roman;fillColor=#ffe6cc;strokeColor=#d79b00;" vertex="1" parent="1">
          <mxGeometry x="-120" y="70" width="80" height="70" as="geometry" />
        </mxCell>
        <mxCell id="jfWpjxqZ-q61aFP-1aeR-72" value="name" style="ellipse;whiteSpace=wrap;html=1;align=center;fontFamily=Times New Roman;" vertex="1" parent="1">
          <mxGeometry x="150" y="70" width="80" height="70" as="geometry" />
        </mxCell>
        <mxCell id="jfWpjxqZ-q61aFP-1aeR-73" value="" style="endArrow=none;html=1;rounded=0;exitX=1;exitY=1;exitDx=0;exitDy=0;entryX=0;entryY=0.5;entryDx=0;entryDy=0;" edge="1" parent="1" source="jfWpjxqZ-q61aFP-1aeR-71" target="jfWpjxqZ-q61aFP-1aeR-70">
          <mxGeometry relative="1" as="geometry">
            <mxPoint x="500" y="110" as="sourcePoint" />
            <mxPoint x="660" y="110" as="targetPoint" />
          </mxGeometry>
        </mxCell>
        <mxCell id="jfWpjxqZ-q61aFP-1aeR-74" value="" style="endArrow=none;html=1;rounded=0;exitX=0;exitY=1;exitDx=0;exitDy=0;entryX=1;entryY=0.25;entryDx=0;entryDy=0;" edge="1" parent="1" source="jfWpjxqZ-q61aFP-1aeR-72" target="jfWpjxqZ-q61aFP-1aeR-70">
          <mxGeometry relative="1" as="geometry">
            <mxPoint x="-41" y="139" as="sourcePoint" />
            <mxPoint x="20" y="180" as="targetPoint" />
          </mxGeometry>
        </mxCell>
        <mxCell id="jfWpjxqZ-q61aFP-1aeR-80" value="Category" style="whiteSpace=wrap;html=1;align=center;fontFamily=Times New Roman;fillColor=#fff2cc;strokeColor=#d6b656;" vertex="1" parent="1">
          <mxGeometry x="590" y="145" width="100" height="40" as="geometry" />
        </mxCell>
        <mxCell id="jfWpjxqZ-q61aFP-1aeR-81" value="id" style="ellipse;whiteSpace=wrap;html=1;align=center;fontFamily=Times New Roman;fillColor=#fff2cc;strokeColor=#d6b656;" vertex="1" parent="1">
          <mxGeometry x="460" y="65" width="80" height="70" as="geometry" />
        </mxCell>
        <mxCell id="jfWpjxqZ-q61aFP-1aeR-82" value="name" style="ellipse;whiteSpace=wrap;html=1;align=center;fontFamily=Times New Roman;" vertex="1" parent="1">
          <mxGeometry x="730" y="65" width="80" height="70" as="geometry" />
        </mxCell>
        <mxCell id="jfWpjxqZ-q61aFP-1aeR-83" value="" style="endArrow=none;html=1;rounded=0;exitX=1;exitY=1;exitDx=0;exitDy=0;entryX=0;entryY=0.5;entryDx=0;entryDy=0;" edge="1" source="jfWpjxqZ-q61aFP-1aeR-81" target="jfWpjxqZ-q61aFP-1aeR-80" parent="1">
          <mxGeometry relative="1" as="geometry">
            <mxPoint x="1080" y="105" as="sourcePoint" />
            <mxPoint x="1240" y="105" as="targetPoint" />
          </mxGeometry>
        </mxCell>
        <mxCell id="jfWpjxqZ-q61aFP-1aeR-84" value="" style="endArrow=none;html=1;rounded=0;exitX=0;exitY=1;exitDx=0;exitDy=0;entryX=1;entryY=0.25;entryDx=0;entryDy=0;" edge="1" source="jfWpjxqZ-q61aFP-1aeR-82" target="jfWpjxqZ-q61aFP-1aeR-80" parent="1">
          <mxGeometry relative="1" as="geometry">
            <mxPoint x="539" y="134" as="sourcePoint" />
            <mxPoint x="600" y="175" as="targetPoint" />
          </mxGeometry>
        </mxCell>
        <mxCell id="jfWpjxqZ-q61aFP-1aeR-85" value="Has" style="shape=rhombus;perimeter=rhombusPerimeter;whiteSpace=wrap;html=1;align=center;fontFamily=Times New Roman;" vertex="1" parent="1">
          <mxGeometry x="80" y="230" width="120" height="60" as="geometry" />
        </mxCell>
        <mxCell id="jfWpjxqZ-q61aFP-1aeR-86" value="" style="endArrow=none;html=1;rounded=0;exitX=0.5;exitY=1;exitDx=0;exitDy=0;entryX=0;entryY=0.5;entryDx=0;entryDy=0;" edge="1" parent="1" source="jfWpjxqZ-q61aFP-1aeR-70" target="jfWpjxqZ-q61aFP-1aeR-85">
          <mxGeometry relative="1" as="geometry">
            <mxPoint x="570" as="sourcePoint" />
            <mxPoint x="730" as="targetPoint" />
          </mxGeometry>
        </mxCell>
        <mxCell id="jfWpjxqZ-q61aFP-1aeR-87" value="" style="endArrow=none;html=1;rounded=0;exitX=1;exitY=0.5;exitDx=0;exitDy=0;entryX=0.5;entryY=0;entryDx=0;entryDy=0;" edge="1" parent="1" source="jfWpjxqZ-q61aFP-1aeR-85" target="you-_u3-UDSHgtFlxdn6-1">
          <mxGeometry relative="1" as="geometry">
            <mxPoint x="70" y="200" as="sourcePoint" />
            <mxPoint x="90" y="270" as="targetPoint" />
          </mxGeometry>
        </mxCell>
        <mxCell id="jfWpjxqZ-q61aFP-1aeR-88" value="1" style="text;strokeColor=none;fillColor=none;spacingLeft=4;spacingRight=4;overflow=hidden;rotatable=0;points=[[0,0.5],[1,0.5]];portConstraint=eastwest;fontSize=12;whiteSpace=wrap;html=1;fontFamily=Times New Roman;" vertex="1" parent="1">
          <mxGeometry x="280" y="130" width="40" height="30" as="geometry" />
        </mxCell>
        <mxCell id="jfWpjxqZ-q61aFP-1aeR-90" value="1" style="text;strokeColor=none;fillColor=none;spacingLeft=4;spacingRight=4;overflow=hidden;rotatable=0;points=[[0,0.5],[1,0.5]];portConstraint=eastwest;fontSize=12;whiteSpace=wrap;html=1;fontFamily=Times New Roman;" vertex="1" parent="1">
          <mxGeometry x="40" y="240" width="40" height="30" as="geometry" />
        </mxCell>
        <mxCell id="jfWpjxqZ-q61aFP-1aeR-91" value="n" style="text;strokeColor=none;fillColor=none;spacingLeft=4;spacingRight=4;overflow=hidden;rotatable=0;points=[[0,0.5],[1,0.5]];portConstraint=eastwest;fontSize=12;whiteSpace=wrap;html=1;fontFamily=Times New Roman;" vertex="1" parent="1">
          <mxGeometry x="190" y="230" width="40" height="30" as="geometry" />
        </mxCell>
        <mxCell id="jfWpjxqZ-q61aFP-1aeR-93" value="" style="endArrow=none;html=1;rounded=0;exitX=0.661;exitY=-0.05;exitDx=0;exitDy=0;exitPerimeter=0;entryX=0;entryY=1;entryDx=0;entryDy=0;" edge="1" parent="1" source="you-_u3-UDSHgtFlxdn6-1" target="jfWpjxqZ-q61aFP-1aeR-105">
          <mxGeometry relative="1" as="geometry">
            <mxPoint x="610" y="265" as="sourcePoint" />
            <mxPoint x="460" y="270" as="targetPoint" />
          </mxGeometry>
        </mxCell>
        <mxCell id="jfWpjxqZ-q61aFP-1aeR-97" value="color" style="ellipse;whiteSpace=wrap;html=1;align=center;fontFamily=Times New Roman;" vertex="1" parent="1">
          <mxGeometry x="120" y="450" width="70" height="70" as="geometry" />
        </mxCell>
        <mxCell id="jfWpjxqZ-q61aFP-1aeR-98" value="" style="endArrow=none;html=1;rounded=0;exitX=1;exitY=0.5;exitDx=0;exitDy=0;entryX=0;entryY=0.25;entryDx=0;entryDy=0;" edge="1" parent="1" source="jfWpjxqZ-q61aFP-1aeR-97" target="you-_u3-UDSHgtFlxdn6-1">
          <mxGeometry relative="1" as="geometry">
            <mxPoint x="250" y="520" as="sourcePoint" />
            <mxPoint x="340" y="460" as="targetPoint" />
          </mxGeometry>
        </mxCell>
        <mxCell id="jfWpjxqZ-q61aFP-1aeR-99" value="product_image" style="whiteSpace=wrap;html=1;align=center;fontFamily=Times New Roman;fillColor=#fff2cc;strokeColor=#d6b656;" vertex="1" parent="1">
          <mxGeometry x="1090" y="435" width="100" height="40" as="geometry" />
        </mxCell>
        <mxCell id="jfWpjxqZ-q61aFP-1aeR-100" value="id" style="ellipse;whiteSpace=wrap;html=1;align=center;fontFamily=Times New Roman;fillColor=#fff2cc;strokeColor=#d6b656;" vertex="1" parent="1">
          <mxGeometry x="950" y="520" width="80" height="70" as="geometry" />
        </mxCell>
        <mxCell id="jfWpjxqZ-q61aFP-1aeR-101" value="image_path" style="ellipse;whiteSpace=wrap;html=1;align=center;fontFamily=Times New Roman;" vertex="1" parent="1">
          <mxGeometry x="1230" y="510" width="80" height="70" as="geometry" />
        </mxCell>
        <mxCell id="jfWpjxqZ-q61aFP-1aeR-102" value="" style="endArrow=none;html=1;rounded=0;exitX=1;exitY=0;exitDx=0;exitDy=0;entryX=0;entryY=1;entryDx=0;entryDy=0;" edge="1" source="jfWpjxqZ-q61aFP-1aeR-100" target="jfWpjxqZ-q61aFP-1aeR-99" parent="1">
          <mxGeometry relative="1" as="geometry">
            <mxPoint x="1580" y="395" as="sourcePoint" />
            <mxPoint x="1740" y="395" as="targetPoint" />
          </mxGeometry>
        </mxCell>
        <mxCell id="jfWpjxqZ-q61aFP-1aeR-103" value="" style="endArrow=none;html=1;rounded=0;exitX=0.5;exitY=0;exitDx=0;exitDy=0;entryX=1;entryY=0.75;entryDx=0;entryDy=0;" edge="1" source="jfWpjxqZ-q61aFP-1aeR-101" target="jfWpjxqZ-q61aFP-1aeR-99" parent="1">
          <mxGeometry relative="1" as="geometry">
            <mxPoint x="1039" y="424" as="sourcePoint" />
            <mxPoint x="1100" y="465" as="targetPoint" />
          </mxGeometry>
        </mxCell>
        <mxCell id="jfWpjxqZ-q61aFP-1aeR-105" value="Has" style="shape=rhombus;perimeter=rhombusPerimeter;whiteSpace=wrap;html=1;align=center;fontFamily=Times New Roman;" vertex="1" parent="1">
          <mxGeometry x="480" y="225" width="120" height="60" as="geometry" />
        </mxCell>
        <mxCell id="jfWpjxqZ-q61aFP-1aeR-106" value="1" style="text;strokeColor=none;fillColor=none;spacingLeft=4;spacingRight=4;overflow=hidden;rotatable=0;points=[[0,0.5],[1,0.5]];portConstraint=eastwest;fontSize=12;whiteSpace=wrap;html=1;fontFamily=Times New Roman;" vertex="1" parent="1">
          <mxGeometry x="620" y="240" width="40" height="30" as="geometry" />
        </mxCell>
        <mxCell id="jfWpjxqZ-q61aFP-1aeR-107" value="n" style="text;strokeColor=none;fillColor=none;spacingLeft=4;spacingRight=4;overflow=hidden;rotatable=0;points=[[0,0.5],[1,0.5]];portConstraint=eastwest;fontSize=12;whiteSpace=wrap;html=1;fontFamily=Times New Roman;" vertex="1" parent="1">
          <mxGeometry x="480" y="260" width="40" height="30" as="geometry" />
        </mxCell>
        <mxCell id="jfWpjxqZ-q61aFP-1aeR-108" value="" style="endArrow=none;html=1;rounded=0;exitX=1;exitY=0.5;exitDx=0;exitDy=0;entryX=0.5;entryY=1;entryDx=0;entryDy=0;" edge="1" parent="1" source="jfWpjxqZ-q61aFP-1aeR-105" target="jfWpjxqZ-q61aFP-1aeR-80">
          <mxGeometry relative="1" as="geometry">
            <mxPoint x="406" y="448" as="sourcePoint" />
            <mxPoint x="490" y="260" as="targetPoint" />
          </mxGeometry>
        </mxCell>
        <mxCell id="jfWpjxqZ-q61aFP-1aeR-109" value="" style="endArrow=none;html=1;rounded=0;exitX=1;exitY=0.5;exitDx=0;exitDy=0;entryX=0;entryY=0.5;entryDx=0;entryDy=0;" edge="1" parent="1" source="jfWpjxqZ-q61aFP-1aeR-110" target="jfWpjxqZ-q61aFP-1aeR-99">
          <mxGeometry relative="1" as="geometry">
            <mxPoint x="940" y="440" as="sourcePoint" />
            <mxPoint x="980" y="370" as="targetPoint" />
          </mxGeometry>
        </mxCell>
        <mxCell id="jfWpjxqZ-q61aFP-1aeR-110" value="Has" style="shape=rhombus;perimeter=rhombusPerimeter;whiteSpace=wrap;html=1;align=center;fontFamily=Times New Roman;" vertex="1" parent="1">
          <mxGeometry x="730" y="415" width="120" height="60" as="geometry" />
        </mxCell>
        <mxCell id="jfWpjxqZ-q61aFP-1aeR-111" value="" style="endArrow=none;html=1;rounded=0;exitX=1;exitY=0.75;exitDx=0;exitDy=0;entryX=0;entryY=0.5;entryDx=0;entryDy=0;" edge="1" parent="1" source="you-_u3-UDSHgtFlxdn6-1" target="jfWpjxqZ-q61aFP-1aeR-110">
          <mxGeometry relative="1" as="geometry">
            <mxPoint x="860" y="455" as="sourcePoint" />
            <mxPoint x="1100" y="465" as="targetPoint" />
          </mxGeometry>
        </mxCell>
        <mxCell id="jfWpjxqZ-q61aFP-1aeR-112" value="n" style="text;strokeColor=none;fillColor=none;spacingLeft=4;spacingRight=4;overflow=hidden;rotatable=0;points=[[0,0.5],[1,0.5]];portConstraint=eastwest;fontSize=12;whiteSpace=wrap;html=1;fontFamily=Times New Roman;" vertex="1" parent="1">
          <mxGeometry x="840" y="415" width="40" height="30" as="geometry" />
        </mxCell>
        <mxCell id="jfWpjxqZ-q61aFP-1aeR-113" value="1" style="text;strokeColor=none;fillColor=none;spacingLeft=4;spacingRight=4;overflow=hidden;rotatable=0;points=[[0,0.5],[1,0.5]];portConstraint=eastwest;fontSize=12;whiteSpace=wrap;html=1;fontFamily=Times New Roman;" vertex="1" parent="1">
          <mxGeometry x="700" y="415" width="40" height="30" as="geometry" />
        </mxCell>
        <mxCell id="jfWpjxqZ-q61aFP-1aeR-121" value="Order" style="rounded=0;whiteSpace=wrap;html=1;fontFamily=Times New Roman;fontSize=14;fillColor=#fad9d5;strokeColor=#ae4132;" vertex="1" parent="1">
          <mxGeometry x="355" y="1200" width="120" height="60" as="geometry" />
        </mxCell>
        <mxCell id="jfWpjxqZ-q61aFP-1aeR-122" value="&lt;u&gt;id&lt;/u&gt;" style="ellipse;whiteSpace=wrap;html=1;align=center;fontFamily=Times New Roman;fillColor=#fad9d5;strokeColor=#ae4132;" vertex="1" parent="1">
          <mxGeometry x="222.5" y="1070" width="80" height="80" as="geometry" />
        </mxCell>
        <mxCell id="jfWpjxqZ-q61aFP-1aeR-123" value="Total_price" style="ellipse;whiteSpace=wrap;html=1;align=center;fontFamily=Times New Roman;" vertex="1" parent="1">
          <mxGeometry x="455" y="1060" width="80" height="80" as="geometry" />
        </mxCell>
        <mxCell id="jfWpjxqZ-q61aFP-1aeR-124" value="Status" style="ellipse;whiteSpace=wrap;html=1;align=center;fontFamily=Times New Roman;" vertex="1" parent="1">
          <mxGeometry x="575" y="1110" width="80" height="80" as="geometry" />
        </mxCell>
        <mxCell id="jfWpjxqZ-q61aFP-1aeR-125" value="" style="endArrow=none;html=1;rounded=0;entryX=0;entryY=0.25;entryDx=0;entryDy=0;exitX=1;exitY=1;exitDx=0;exitDy=0;" edge="1" parent="1" source="jfWpjxqZ-q61aFP-1aeR-122" target="jfWpjxqZ-q61aFP-1aeR-121">
          <mxGeometry relative="1" as="geometry">
            <mxPoint x="115" y="710" as="sourcePoint" />
            <mxPoint x="83" y="802" as="targetPoint" />
          </mxGeometry>
        </mxCell>
        <mxCell id="jfWpjxqZ-q61aFP-1aeR-126" value="" style="endArrow=none;html=1;rounded=0;entryX=0.75;entryY=0;entryDx=0;entryDy=0;exitX=0.5;exitY=1;exitDx=0;exitDy=0;" edge="1" parent="1" source="jfWpjxqZ-q61aFP-1aeR-123" target="jfWpjxqZ-q61aFP-1aeR-121">
          <mxGeometry relative="1" as="geometry">
            <mxPoint x="273" y="1178" as="sourcePoint" />
            <mxPoint x="365" y="1225" as="targetPoint" />
          </mxGeometry>
        </mxCell>
        <mxCell id="jfWpjxqZ-q61aFP-1aeR-127" value="" style="endArrow=none;html=1;rounded=0;entryX=1;entryY=0;entryDx=0;entryDy=0;exitX=0;exitY=1;exitDx=0;exitDy=0;" edge="1" parent="1" source="jfWpjxqZ-q61aFP-1aeR-124" target="jfWpjxqZ-q61aFP-1aeR-121">
          <mxGeometry relative="1" as="geometry">
            <mxPoint x="405" y="1150" as="sourcePoint" />
            <mxPoint x="395" y="1210" as="targetPoint" />
          </mxGeometry>
        </mxCell>
        <mxCell id="jfWpjxqZ-q61aFP-1aeR-128" value="shipping_address" style="ellipse;whiteSpace=wrap;html=1;align=center;fontFamily=Times New Roman;" vertex="1" parent="1">
          <mxGeometry x="535" y="1230" width="110" height="90" as="geometry" />
        </mxCell>
        <mxCell id="jfWpjxqZ-q61aFP-1aeR-129" value="payment_method" style="ellipse;whiteSpace=wrap;html=1;align=center;fontFamily=Times New Roman;" vertex="1" parent="1">
          <mxGeometry x="215" y="1250" width="95" height="90" as="geometry" />
        </mxCell>
        <mxCell id="jfWpjxqZ-q61aFP-1aeR-130" value="" style="endArrow=none;html=1;rounded=0;entryX=0;entryY=0.75;entryDx=0;entryDy=0;exitX=1;exitY=0;exitDx=0;exitDy=0;" edge="1" parent="1" source="jfWpjxqZ-q61aFP-1aeR-129" target="jfWpjxqZ-q61aFP-1aeR-121">
          <mxGeometry relative="1" as="geometry">
            <mxPoint x="273" y="1178" as="sourcePoint" />
            <mxPoint x="365" y="1225" as="targetPoint" />
          </mxGeometry>
        </mxCell>
        <mxCell id="jfWpjxqZ-q61aFP-1aeR-131" value="" style="endArrow=none;html=1;rounded=0;entryX=1;entryY=0.5;entryDx=0;entryDy=0;exitX=0;exitY=0;exitDx=0;exitDy=0;" edge="1" parent="1" source="jfWpjxqZ-q61aFP-1aeR-128" target="jfWpjxqZ-q61aFP-1aeR-121">
          <mxGeometry relative="1" as="geometry">
            <mxPoint x="306" y="1273" as="sourcePoint" />
            <mxPoint x="365" y="1255" as="targetPoint" />
          </mxGeometry>
        </mxCell>
        <mxCell id="jfWpjxqZ-q61aFP-1aeR-132" value="" style="endArrow=none;html=1;rounded=0;entryX=1;entryY=1;entryDx=0;entryDy=0;exitX=0;exitY=0.5;exitDx=0;exitDy=0;" edge="1" parent="1" source="jfWpjxqZ-q61aFP-1aeR-133" target="jfWpjxqZ-q61aFP-1aeR-134">
          <mxGeometry relative="1" as="geometry">
            <mxPoint x="1069" y="1509" as="sourcePoint" />
            <mxPoint x="851" y="1140" as="targetPoint" />
          </mxGeometry>
        </mxCell>
        <mxCell id="jfWpjxqZ-q61aFP-1aeR-133" value="Order_detail" style="rounded=0;whiteSpace=wrap;html=1;fontFamily=Times New Roman;fontSize=14;fillColor=#e1d5e7;strokeColor=#9673a6;" vertex="1" parent="1">
          <mxGeometry x="550" y="860" width="120" height="60" as="geometry" />
        </mxCell>
        <mxCell id="jfWpjxqZ-q61aFP-1aeR-134" value="&lt;u&gt;id&lt;/u&gt;" style="ellipse;whiteSpace=wrap;html=1;align=center;fontFamily=Times New Roman;fillColor=#e1d5e7;strokeColor=#9673a6;" vertex="1" parent="1">
          <mxGeometry x="325" y="810" width="80" height="80" as="geometry" />
        </mxCell>
        <mxCell id="jfWpjxqZ-q61aFP-1aeR-135" value="Price" style="ellipse;whiteSpace=wrap;html=1;align=center;fontFamily=Times New Roman;" vertex="1" parent="1">
          <mxGeometry x="705" y="710" width="80" height="80" as="geometry" />
        </mxCell>
        <mxCell id="jfWpjxqZ-q61aFP-1aeR-136" value="Subtotal" style="ellipse;whiteSpace=wrap;html=1;align=center;fontFamily=Times New Roman;" vertex="1" parent="1">
          <mxGeometry x="770" y="870" width="80" height="80" as="geometry" />
        </mxCell>
        <mxCell id="jfWpjxqZ-q61aFP-1aeR-137" value="" style="endArrow=none;html=1;rounded=0;entryX=0.5;entryY=1;entryDx=0;entryDy=0;exitX=0.25;exitY=0;exitDx=0;exitDy=0;" edge="1" parent="1" source="jfWpjxqZ-q61aFP-1aeR-133" target="jfWpjxqZ-q61aFP-1aeR-140">
          <mxGeometry relative="1" as="geometry">
            <mxPoint x="560" y="900" as="sourcePoint" />
            <mxPoint x="630" y="760" as="targetPoint" />
          </mxGeometry>
        </mxCell>
        <mxCell id="jfWpjxqZ-q61aFP-1aeR-138" value="" style="endArrow=none;html=1;rounded=0;entryX=0.5;entryY=1;entryDx=0;entryDy=0;exitX=1;exitY=0;exitDx=0;exitDy=0;" edge="1" parent="1" source="jfWpjxqZ-q61aFP-1aeR-133" target="jfWpjxqZ-q61aFP-1aeR-135">
          <mxGeometry relative="1" as="geometry">
            <mxPoint x="590" y="870" as="sourcePoint" />
            <mxPoint x="721.7157287525379" y="808.2842712474621" as="targetPoint" />
          </mxGeometry>
        </mxCell>
        <mxCell id="jfWpjxqZ-q61aFP-1aeR-139" value="" style="endArrow=none;html=1;rounded=0;entryX=0;entryY=0.5;entryDx=0;entryDy=0;exitX=1;exitY=0.5;exitDx=0;exitDy=0;" edge="1" parent="1" source="jfWpjxqZ-q61aFP-1aeR-133" target="jfWpjxqZ-q61aFP-1aeR-136">
          <mxGeometry relative="1" as="geometry">
            <mxPoint x="680" y="870" as="sourcePoint" />
            <mxPoint x="732" y="818" as="targetPoint" />
          </mxGeometry>
        </mxCell>
        <mxCell id="jfWpjxqZ-q61aFP-1aeR-140" value="Quantity" style="ellipse;whiteSpace=wrap;html=1;align=center;fontFamily=Times New Roman;" vertex="1" parent="1">
          <mxGeometry x="570" y="700" width="80" height="80" as="geometry" />
        </mxCell>
        <mxCell id="jfWpjxqZ-q61aFP-1aeR-142" value="" style="endArrow=none;html=1;rounded=0;entryX=0;entryY=0.5;entryDx=0;entryDy=0;exitX=0.75;exitY=1;exitDx=0;exitDy=0;" edge="1" parent="1" source="jfWpjxqZ-q61aFP-1aeR-14" target="jfWpjxqZ-q61aFP-1aeR-143">
          <mxGeometry relative="1" as="geometry">
            <mxPoint x="-80" y="1000" as="sourcePoint" />
            <mxPoint x="740" y="455" as="targetPoint" />
          </mxGeometry>
        </mxCell>
        <mxCell id="jfWpjxqZ-q61aFP-1aeR-143" value="Has" style="shape=rhombus;perimeter=rhombusPerimeter;whiteSpace=wrap;html=1;align=center;fontFamily=Times New Roman;" vertex="1" parent="1">
          <mxGeometry x="-30" y="1050" width="120" height="60" as="geometry" />
        </mxCell>
        <mxCell id="jfWpjxqZ-q61aFP-1aeR-144" value="" style="endArrow=none;html=1;rounded=0;entryX=1;entryY=0.5;entryDx=0;entryDy=0;exitX=0;exitY=0.5;exitDx=0;exitDy=0;" edge="1" parent="1" source="jfWpjxqZ-q61aFP-1aeR-121" target="jfWpjxqZ-q61aFP-1aeR-143">
          <mxGeometry relative="1" as="geometry">
            <mxPoint x="-75" y="860" as="sourcePoint" />
            <mxPoint x="-20" y="1090" as="targetPoint" />
          </mxGeometry>
        </mxCell>
        <mxCell id="jfWpjxqZ-q61aFP-1aeR-145" value="Has" style="shape=rhombus;perimeter=rhombusPerimeter;whiteSpace=wrap;html=1;align=center;fontFamily=Times New Roman;" vertex="1" parent="1">
          <mxGeometry x="120" y="770" width="120" height="60" as="geometry" />
        </mxCell>
        <mxCell id="jfWpjxqZ-q61aFP-1aeR-147" value="" style="endArrow=none;html=1;rounded=0;entryX=0.5;entryY=1;entryDx=0;entryDy=0;exitX=0.25;exitY=0;exitDx=0;exitDy=0;" edge="1" parent="1" source="jfWpjxqZ-q61aFP-1aeR-121" target="jfWpjxqZ-q61aFP-1aeR-145">
          <mxGeometry relative="1" as="geometry">
            <mxPoint x="365" y="1240" as="sourcePoint" />
            <mxPoint x="100" y="1090" as="targetPoint" />
          </mxGeometry>
        </mxCell>
        <mxCell id="jfWpjxqZ-q61aFP-1aeR-148" value="" style="endArrow=none;html=1;rounded=0;exitX=0.5;exitY=0;exitDx=0;exitDy=0;entryX=1;entryY=0.5;entryDx=0;entryDy=0;" edge="1" parent="1" source="jfWpjxqZ-q61aFP-1aeR-145" target="jfWpjxqZ-q61aFP-1aeR-1">
          <mxGeometry relative="1" as="geometry">
            <mxPoint x="395" y="1210" as="sourcePoint" />
            <mxPoint x="-110" y="520" as="targetPoint" />
          </mxGeometry>
        </mxCell>
        <mxCell id="jfWpjxqZ-q61aFP-1aeR-149" value="Has" style="shape=rhombus;perimeter=rhombusPerimeter;whiteSpace=wrap;html=1;align=center;fontFamily=Times New Roman;" vertex="1" parent="1">
          <mxGeometry x="365" y="960" width="120" height="60" as="geometry" />
        </mxCell>
        <mxCell id="jfWpjxqZ-q61aFP-1aeR-150" value="" style="endArrow=none;html=1;rounded=0;exitX=0.5;exitY=0;exitDx=0;exitDy=0;entryX=1;entryY=0.5;entryDx=0;entryDy=0;" edge="1" parent="1">
          <mxGeometry relative="1" as="geometry">
            <mxPoint x="190" y="780" as="sourcePoint" />
            <mxPoint x="-90" y="490" as="targetPoint" />
          </mxGeometry>
        </mxCell>
        <mxCell id="jfWpjxqZ-q61aFP-1aeR-151" value="" style="endArrow=none;html=1;rounded=0;exitX=1;exitY=0.5;exitDx=0;exitDy=0;entryX=0;entryY=1;entryDx=0;entryDy=0;" edge="1" parent="1" source="jfWpjxqZ-q61aFP-1aeR-149" target="jfWpjxqZ-q61aFP-1aeR-133">
          <mxGeometry relative="1" as="geometry">
            <mxPoint x="200" y="790" as="sourcePoint" />
            <mxPoint x="-80" y="500" as="targetPoint" />
          </mxGeometry>
        </mxCell>
        <mxCell id="jfWpjxqZ-q61aFP-1aeR-152" value="" style="endArrow=none;html=1;rounded=0;exitX=0.5;exitY=1;exitDx=0;exitDy=0;entryX=0.5;entryY=0;entryDx=0;entryDy=0;" edge="1" parent="1" source="jfWpjxqZ-q61aFP-1aeR-149" target="jfWpjxqZ-q61aFP-1aeR-121">
          <mxGeometry relative="1" as="geometry">
            <mxPoint x="495" y="1000" as="sourcePoint" />
            <mxPoint x="560" y="930" as="targetPoint" />
          </mxGeometry>
        </mxCell>
        <mxCell id="jfWpjxqZ-q61aFP-1aeR-153" value="Has" style="shape=rhombus;perimeter=rhombusPerimeter;whiteSpace=wrap;html=1;align=center;fontFamily=Times New Roman;" vertex="1" parent="1">
          <mxGeometry x="410" y="720" width="120" height="60" as="geometry" />
        </mxCell>
        <mxCell id="jfWpjxqZ-q61aFP-1aeR-154" value="" style="endArrow=none;html=1;rounded=0;exitX=1;exitY=0.5;exitDx=0;exitDy=0;" edge="1" parent="1" source="jfWpjxqZ-q61aFP-1aeR-153">
          <mxGeometry relative="1" as="geometry">
            <mxPoint x="495" y="1000" as="sourcePoint" />
            <mxPoint x="550" y="860" as="targetPoint" />
          </mxGeometry>
        </mxCell>
        <mxCell id="jfWpjxqZ-q61aFP-1aeR-155" value="" style="endArrow=none;html=1;rounded=0;exitX=0.41;exitY=1.025;exitDx=0;exitDy=0;exitPerimeter=0;entryX=0.5;entryY=0;entryDx=0;entryDy=0;" edge="1" parent="1" source="you-_u3-UDSHgtFlxdn6-1" target="jfWpjxqZ-q61aFP-1aeR-153">
          <mxGeometry relative="1" as="geometry">
            <mxPoint x="540" y="760" as="sourcePoint" />
            <mxPoint x="560" y="870" as="targetPoint" />
          </mxGeometry>
        </mxCell>
      </root>
    </mxGraphModel>
  </diagram>
</mxfile>
